<svg width="114" height="94" viewBox="0 0 114 94" fill="none" xmlns="http://www.w3.org/2000/svg">
<path d="M90.5375 93.57H7.4825C2.2725 93.57 0.315 89.165 0.01 86.84L0 57.3651C0.000886971 57.2095 0.0296766 57.0554 0.085 56.9101L11.7425 26.9401C12.3385 25.4394 13.3839 24.1597 14.7355 23.2762C16.0871 22.3928 17.6788 21.9488 19.2925 22.0051H78.6875C80.3148 21.9468 81.9202 22.3943 83.2826 23.2862C84.645 24.178 85.6974 25.4703 86.295 26.9851L97.9325 56.9101C97.9878 57.0554 98.0166 57.2095 98.0175 57.3651V86.6776C97.705 89.1675 95.75 93.57 90.5375 93.57ZM2.5 57.6V86.6776C2.5525 86.9751 3.2525 91.0725 7.4825 91.0725H90.5375C94.8825 91.0725 95.5025 86.7026 95.5275 86.5175L95.5175 57.6026L83.9475 27.8526C83.885 27.6801 82.6925 24.5101 78.73 24.5101H19.3375C15.265 24.5101 14.1025 27.7701 14.09 27.8026L2.5 57.6Z" fill="#D0D0D0"/>
<path d="M66.9245 64.3329H31.0995C30.9244 64.3321 30.7515 64.2946 30.5917 64.2229C30.432 64.1513 30.2891 64.047 30.1721 63.9168C30.055 63.7866 29.9666 63.6334 29.9123 63.4669C29.858 63.3005 29.8392 63.1245 29.857 62.9504C30.162 60.0729 29.777 57.9379 28.7345 56.7804C27.7045 55.6354 26.1245 55.7229 25.982 55.7329L12.0495 55.7454C11.8461 55.7449 11.6459 55.6947 11.4663 55.5993C11.2867 55.5039 11.1331 55.3661 11.0188 55.1978C10.9045 55.0296 10.833 54.836 10.8104 54.6339C10.7879 54.4317 10.815 54.2272 10.8895 54.0379L19.612 32.0029C19.7042 31.7698 19.8644 31.5699 20.0717 31.429C20.279 31.2882 20.5238 31.2128 20.7745 31.2129H77.2445C77.4951 31.2128 77.74 31.2882 77.9473 31.429C78.1546 31.5699 78.3147 31.7698 78.407 32.0029L87.0095 53.7404C87.1507 53.9257 87.2372 54.1468 87.2594 54.3788C87.2816 54.6107 87.2386 54.8442 87.1351 55.053C87.0316 55.2618 86.8719 55.4374 86.6739 55.5602C86.4759 55.683 86.2475 55.748 86.0145 55.7479H72.2045C72.012 55.7329 71.917 55.7254 71.777 55.7254C71.1995 55.7254 70.112 55.8629 69.2845 56.7829C68.2445 57.9429 67.857 60.0729 68.1645 62.9529C68.1843 63.1271 68.1669 63.3035 68.1135 63.4705C68.0601 63.6375 67.9719 63.7913 67.8548 63.9217C67.7376 64.0521 67.5941 64.1562 67.4337 64.2271C67.2733 64.2979 67.0998 64.334 66.9245 64.3329ZM32.4445 61.8329H65.577C65.457 58.8679 66.077 56.6104 67.4245 55.1129C69.462 52.8479 72.3845 53.2629 72.382 53.2604L84.1245 53.2504L76.392 33.7129H21.6245L13.892 53.2504H25.7645C25.802 53.2429 25.9895 53.2279 26.2445 53.2279C27.237 53.2279 29.117 53.4729 30.5945 55.1129C31.942 56.6104 32.5645 58.8679 32.4445 61.8329Z" fill="#D0D0D0"/>
<circle cx="97" cy="20" r="4" fill="#C4C4C4"/>
<circle cx="109" cy="13" r="5" fill="#C4C4C4"/>
<circle cx="98" cy="4" r="3.5" stroke="#D0D0D0"/>
</svg>
